<?xml version="1.0" encoding="UTF-8" standalone="no"?>
<svg
   xmlns:dc="http://purl.org/dc/elements/1.1/"
   xmlns:cc="http://creativecommons.org/ns#"
   xmlns:rdf="http://www.w3.org/1999/02/22-rdf-syntax-ns#"
   xmlns:svg="http://www.w3.org/2000/svg"
   xmlns="http://www.w3.org/2000/svg"
   xmlns:sodipodi="http://sodipodi.sourceforge.net/DTD/sodipodi-0.dtd"
   xmlns:inkscape="http://www.inkscape.org/namespaces/inkscape"
   inkscape:version="1.0 (4035a4fb49, 2020-05-01)"
   height="360"
   width="512"
   sodipodi:docname="ingots - Copia.svg"
   xml:space="preserve"
   viewBox="0 0 512 360"
   y="0px"
   x="0px"
   id="Capa_1"
   version="1.1"><metadata
   id="metadata170"><rdf:RDF><cc:Work
       rdf:about=""><dc:format>image/svg+xml</dc:format><dc:type
         rdf:resource="http://purl.org/dc/dcmitype/StillImage" /><dc:title></dc:title></cc:Work></rdf:RDF></metadata><defs
   id="defs168"><rect
     id="rect190"
     height="45.759537"
     width="33.646717"
     y="282.63242"
     x="109.01536" /><rect
     id="rect184"
     height="82.097992"
     width="32.300846"
     y="211.30138"
     x="115.74471" /><rect
     id="rect174"
     height="106.32362"
     width="512.77594"
     y="250.33157"
     x="1.3458687" /></defs><sodipodi:namedview
   width="153mm"
   units="mm"
   inkscape:current-layer="Capa_1"
   inkscape:window-maximized="1"
   inkscape:window-y="-8"
   inkscape:window-x="-8"
   inkscape:cy="193.39905"
   inkscape:cx="371.36164"
   inkscape:zoom="1.0507812"
   showgrid="false"
   id="namedview166"
   inkscape:window-height="1017"
   inkscape:window-width="1920"
   inkscape:pageshadow="2"
   inkscape:pageopacity="0"
   guidetolerance="10"
   gridtolerance="10"
   objecttolerance="10"
   borderopacity="1"
   bordercolor="#666666"
   pagecolor="#ffffff" />
<path
   id="path103"
   d="m 368.73474,235.77187 h -179.589 c -10.575,0 -17.303,-11.308 -12.26,-20.601 l 36.685,-67.603 c 4.999,-9.212 14.639,-14.949 25.119,-14.949 h 186.02 z"
   style="fill:#f7cf66" />
<path
   id="path105"
   d="m 368.73474,235.77187 h -179.589 c -10.575,0 -17.303,-11.308 -12.26,-20.601 l 36.685,-67.603 c 4.999,-9.212 14.639,-14.949 25.119,-14.949 h 186.02 z"
   style="opacity:0.2;fill:#c97b00;enable-background:new" />
<path
   id="path107"
   d="m 505.47574,215.16987 -36.684,-67.603 c -4.999,-9.212 -14.639,-14.949 -25.119,-14.949 h -37.921 c -10.481,0 -20.12,5.737 -25.119,14.949 l -36.685,67.603 c -5.044,9.295 1.685,20.601 12.26,20.601 h 137.01 c 10.572,0.001 17.301,-11.307 12.258,-20.601 z"
   style="fill:#f6e06a" />
<path
   id="path109"
   d="M 203.75574,235.72487 H 24.167737 c -10.575,0 -17.3029997,-11.308 -12.26,-20.601 l 36.686,-67.603 c 4.999,-9.212 14.639,-14.949 25.119,-14.949 H 259.73274 Z"
   style="fill:#f7cf66" />
<path
   id="path111"
   d="m 153.81374,132.57087 c -0.535,3.062 -0.83,6.207 -0.83,9.423 0,30.04 24.352,54.392 54.392,54.392 6.966,0 13.619,-1.324 19.74,-3.71 l 32.616,-60.104 h -105.918 z"
   style="opacity:0.2;fill:#ffffff;enable-background:new" />
<path
   id="path113"
   d="m 340.49774,215.12187 -36.686,-67.603 c -4.999,-9.212 -14.639,-14.949 -25.119,-14.949 h -37.921 c -10.481,0 -20.12,5.737 -25.119,14.949 l -36.686,67.603 c -5.044,9.295 1.685,20.601 12.26,20.601 h 137.01 c 10.576,0.002 17.304,-11.306 12.261,-20.601 z"
   style="fill:#f6e06a" />
<path
   d="m 286.22874,132.61887 h -179.587 c -10.575003,0 -17.303003,-11.308 -12.260003,-20.601 l 36.686003,-67.603 c 4.999,-9.212 14.639,-14.949 25.119,-14.949 h 186.02 z"
   style="fill:#f7cf66"
   id="SVGCleanerId_0" />
<g
   transform="translate(2.6917373,-131.89513)"
   id="g117">
	<path
   d="M 283.537,264.514 H 103.95 c -10.575,0 -17.303,-11.308 -12.26,-20.601 l 36.686,-67.603 c 4.999,-9.212 14.639,-14.949 25.119,-14.949 h 186.02 z"
   style="fill:#f7cf66"
   id="SVGCleanerId_0_1_" />
</g>
<path
   id="path119"
   d="m 236.28774,29.46587 c -0.535,3.062 -0.83,6.207 -0.83,9.423 0,30.04 24.352,54.392 54.392,54.392 6.966,0 13.619,-1.324 19.74,-3.71 l 32.616,-60.104 z"
   style="opacity:0.2;fill:#ffffff;enable-background:new" />
<path
   id="path121"
   d="m 422.97074,112.01787 -36.685,-67.603 c -4.999,-9.212 -14.639,-14.949 -25.119,-14.949 h -37.921 c -10.481,0 -20.12,5.737 -25.119,14.949 l -36.685,67.603 c -5.044,9.295 1.685,20.601 12.26,20.601 h 137.01 c 10.574,0 17.303,-11.308 12.259,-20.601 z"
   style="fill:#f6e06a" />
<g
   transform="translate(2.6917373,-131.89513)"
   id="g127">
	<path
   id="path123"
   d="m 51.618,272.074 c -2.258,2.089 -4.203,4.553 -5.716,7.341 L 9.217,347.017 c -5.044,9.295 1.685,20.601 12.26,20.601 h 83.707 C 63.553,349.044 48.35,297.977 51.618,272.074 Z"
   style="opacity:0.2;fill:#c97b00;enable-background:new" />
	<path
   id="path125"
   d="m 134.091,168.968 c -2.258,2.089 -4.203,4.553 -5.716,7.341 l -36.686,67.604 c -5.044,9.295 1.685,20.601 12.26,20.601 h 83.707 c -41.629,-18.575 -56.833,-69.643 -53.565,-95.546 z"
   style="opacity:0.2;fill:#c97b00;enable-background:new" />
</g>
<path
   id="path129"
   d="m 404.13574,77.74787 v 0 c -3.583,7.427 -14.161,7.427 -17.743,0 v 0 c -4.147,-8.597 -11.016,-15.584 -19.54,-19.875 l -2.376,-1.196 c -7.227,-3.639 -7.227,-13.957 0,-17.594 l 2.376,-1.196 c 8.525,-4.292 15.394,-11.279 19.54,-19.875 v 0 c 3.583,-7.427 14.161,-7.427 17.743,0 v 0 c 4.147,8.597 11.016,15.584 19.54,19.875 l 2.376,1.196 c 7.227,3.639 7.227,13.957 0,17.594 l -2.376,1.196 c -8.525,4.292 -15.394,11.279 -19.54,19.875 z"
   style="fill:#f7cf66" />
<path
   id="path131"
   d="m 251.43774,162.44087 v 0 c -3.583,7.427 -14.161,7.427 -17.742,0 v 0 c -4.147,-8.597 -11.016,-15.584 -19.54,-19.875 l -2.376,-1.196 c -7.227,-3.639 -7.227,-13.957 0,-17.595 l 2.376,-1.196 c 8.525,-4.292 15.394,-11.279 19.54,-19.875 v 0 c 3.583,-7.427 14.161,-7.427 17.742,0 v 0 c 4.147,8.597 11.016,15.584 19.54,19.875 l 2.376,1.196 c 7.227,3.639 7.227,13.957 0,17.595 l -2.376,1.196 c -8.524,4.291 -15.393,11.278 -19.54,19.875 z"
   style="fill:#ffffff" />
<path
   id="path133"
   d="m 512.06774,211.59287 -3.925,-7.234 c -1.976,-3.641 -6.529,-4.992 -10.169,-3.016 -3.641,1.976 -4.991,6.528 -3.016,10.169 l 3.926,7.235 c 1.578,2.909 0.438,5.426 -0.126,6.374 -0.563,0.948 -2.232,3.151 -5.542,3.151 h -136.186 c -0.271,-0.03 -0.545,-0.047 -0.824,-0.047 h -0.572 c -2.92,-0.242 -4.441,-2.214 -4.97,-3.104 -0.564,-0.948 -1.705,-3.465 -0.126,-6.374 l 36.686,-67.603 c 3.691,-6.801 10.79,-11.026 18.527,-11.026 h 37.92 c 7.738,0 14.837,4.225 18.527,11.026 l 15.875,29.253 c 1.975,3.64 6.526,4.989 10.169,3.015 3.641,-1.976 4.99,-6.528 3.015,-10.169 l -15.876,-29.253 c -6.317,-11.641 -18.467,-18.871 -31.711,-18.871 h -12.502 c 1.752,-5.485 1.231,-11.449 -1.607,-16.678 l -16.746,-30.861 c 3.464,-5.517 8.397,-10.07 14.233,-13.009 l 2.376,-1.196 c 5.889,-2.965 9.547,-8.903 9.547,-15.497 0,-6.593 -3.658,-12.531 -9.548,-15.497 l -2.376,-1.196 c -7.011,-3.53 -12.749,-9.367 -16.159,-16.435 -2.919,-6.0519995 -8.907,-9.8119995 -15.627,-9.8119995 -6.72,0 -12.707,3.76 -15.627,9.8119995 -1.655,3.431 -3.867,6.564 -6.499,9.291 -3.846,-1.356 -7.903,-2.076 -11.972,-2.076 h -204.98 c -13.244,0 -25.394,7.231 -31.711,18.871 l -36.686003,67.604 c -2.83,5.215 -3.355,11.16 -1.622,16.631 h -12.451 c -13.244,0 -25.394,7.231 -31.711,18.871 l -36.6849997,67.604 c -3.643,6.711 -3.486,14.637 0.419,21.198 3.905,6.563 10.7959997,10.48 18.4319997,10.48 H 354.76474 c 0.477,0.031 0.957,0.047 1.441,0.047 h 137.01 c 7.637,0 14.527,-3.918 18.432,-10.48 3.905,-6.562 4.062,-14.487 0.42,-21.198 z m -144.219,-165.813 2.376,-1.196 c 3.182,-1.602 6.177,-3.543 8.941,-5.766 0.164,-0.124 0.322,-0.256 0.476,-0.395 5.656,-4.662 10.307,-10.523 13.507,-17.155 0.558,-1.156 1.565,-1.329 2.116,-1.329 0.551,0 1.559,0.172 2.116,1.329 4.837,10.028 12.978,18.308 22.923,23.316 l 2.376,1.196 c 1.125,0.566 1.293,1.559 1.293,2.099 0,0.541 -0.168,1.533 -1.293,2.099 l -2.376,1.196 c -9.828,4.949 -17.887,13.097 -22.744,22.965 -0.003,0.005 -0.006,0.01 -0.009,0.016 -0.057,0.108 -0.112,0.216 -0.165,0.325 0,10e-4 -10e-4,0.002 -10e-4,0.003 -0.001,0.002 -0.002,0.004 -0.003,0.006 v 0 c -0.558,1.156 -1.565,1.329 -2.116,1.329 -0.551,0 -1.559,-0.173 -2.117,-1.33 -4.837,-10.028 -12.979,-18.308 -22.922,-23.315 l -2.376,-1.196 c -1.126,-0.566 -1.294,-1.559 -1.294,-2.099 -0.002,-0.539 0.166,-1.532 1.292,-2.098 z m -44.603,-8.814 h 32.16 c -2.452,3.026 -3.85,6.843 -3.85,10.914 0,6.593 3.658,12.531 9.548,15.497 l 2.375,1.196 c 7.011,3.53 12.75,9.367 16.158,16.435 2.919,6.053 8.907,9.813 15.627,9.813 2.435,0 4.77,-0.5 6.902,-1.417 l 14.214,26.193 c 1.579,2.909 0.438,5.426 -0.126,6.374 -0.564,0.947 -2.233,3.151 -5.543,3.151 h -126.114 c -1.619,-3.415 -4.34,-6.266 -7.871,-8.044 l -2.375,-1.196 c -1.702,-0.857 -3.326,-1.855 -4.863,-2.969 l 35.229,-64.919 c 3.692,-6.803 10.791,-11.028 18.529,-11.028 z m -51.973,95.663 c -0.011,0.55 -0.202,1.494 -1.291,2.042 l -2.376,1.196 c -9.945,5.008 -18.086,13.289 -22.922,23.316 -0.558,1.156 -1.565,1.329 -2.117,1.329 -0.551,0 -1.559,-0.172 -2.116,-1.329 -4.838,-10.029 -12.979,-18.309 -22.923,-23.316 l -2.376,-1.196 c -1.126,-0.566 -1.293,-1.559 -1.293,-2.099 0,-0.54 0.168,-1.533 1.293,-2.099 l 2.376,-1.196 c 9.945,-5.007 18.085,-13.288 22.923,-23.316 0.558,-1.156 1.565,-1.329 2.116,-1.329 0.551,0 1.559,0.173 2.117,1.329 2.528,5.241 5.966,9.998 10.085,14.067 0.167,0.181 0.344,0.353 0.529,0.517 3.637,3.491 7.783,6.453 12.309,8.732 l 2.376,1.196 c 1.122,0.565 1.292,1.552 1.293,2.093 0,0.018 -0.003,0.035 -0.003,0.053 0,0.003 0,0.006 0,0.01 z m -100.503,95.596 H 24.167737 c -3.31,0 -4.979,-2.204 -5.542,-3.151 -0.564,-0.947 -1.705,-3.465 -0.126,-6.374 l 36.685,-67.604 c 3.691,-6.801 10.791,-11.026 18.527,-11.026 h 31.487003 c 0.477,0.031 0.957,0.047 1.441,0.047 0.279,0 0.553,-0.018 0.824,-0.047 h 30.558 c 4.142,0 7.5,-3.358 7.5,-7.5 0,-4.142 -3.358,-7.5 -7.5,-7.5 h -31.953 c -2.92,-0.241 -4.441,-2.214 -4.97,-3.103 -0.563,-0.948 -1.704003,-3.465 -0.126,-6.374 l 36.686,-67.603 c 3.691,-6.801 10.79,-11.026 18.527,-11.026 h 137.79 c -0.885,1.23 -1.706,2.518 -2.441,3.872 l -32.578,60.034 c -0.257,-0.475 -0.529,-0.941 -0.764,-1.428 -2.92,-6.052 -8.908,-9.812 -15.628,-9.811 -6.72,0 -12.707,3.76 -15.626,9.812 -3.41,7.069 -9.149,12.906 -16.16,16.436 l -2.376,1.196 c -3.514,1.77 -6.225,4.602 -7.847,7.997 h -27.774 c -4.142,0 -7.5,3.358 -7.5,7.5 0,4.142 3.358,7.5 7.5,7.5 h 27.774 c 1.43,2.991 3.706,5.544 6.633,7.319 l -34.815,64.157 c -2.836,5.227 -3.356,11.192 -1.604,16.677 z m 163.01,-3.152 c -0.563,0.948 -2.232,3.151 -5.542,3.151 h -137.01 c -3.31,0 -4.979,-2.204 -5.542,-3.151 -0.564,-0.947 -1.705,-3.465 -0.127,-6.374 l 34.181,-62.988 c 2.94,2.886 5.401,6.258 7.2,9.987 2.919,6.052 8.907,9.812 15.626,9.812 0.001,0 0,0 0.001,0 6.719,0 12.707,-3.76 15.627,-9.812 v 0 c 3.409,-7.069 9.148,-12.906 16.158,-16.435 l 2.376,-1.196 c 3.257,-1.64 5.826,-4.191 7.477,-7.257 5.489,1.486 10.229,5.15 13.016,10.286 l 36.685,67.603 c 1.579,2.909 0.438,5.427 -0.126,6.374 z m -23.376,-81.13 c -0.725,-1.337 -1.536,-2.608 -2.408,-3.824 h 68.485 c -0.885,1.23 -1.706,2.518 -2.441,3.872 l -31.805,58.61 z" />
<g
   transform="translate(2.6917373,-131.89513)"
   id="g135">
</g>
<g
   transform="translate(2.6917373,-131.89513)"
   id="g137">
</g>
<g
   transform="translate(2.6917373,-131.89513)"
   id="g139">
</g>
<g
   transform="translate(2.6917373,-131.89513)"
   id="g141">
</g>
<g
   transform="translate(2.6917373,-131.89513)"
   id="g143">
</g>
<g
   transform="translate(2.6917373,-131.89513)"
   id="g145">
</g>
<g
   transform="translate(2.6917373,-131.89513)"
   id="g147">
</g>
<g
   transform="translate(2.6917373,-131.89513)"
   id="g149">
</g>
<g
   transform="translate(2.6917373,-131.89513)"
   id="g151">
</g>
<g
   transform="translate(2.6917373,-131.89513)"
   id="g153">
</g>
<g
   transform="translate(2.6917373,-131.89513)"
   id="g155">
</g>
<g
   transform="translate(2.6917373,-131.89513)"
   id="g157">
</g>
<g
   transform="translate(2.6917373,-131.89513)"
   id="g159">
</g>
<g
   transform="translate(2.6917373,-131.89513)"
   id="g161">
</g>
<g
   transform="translate(2.6917373,-131.89513)"
   id="g163">
</g>
<text
   style="font-style:normal;font-weight:normal;font-size:40px;line-height:1.25;font-family:sans-serif;white-space:pre;shape-inside:url(#rect174);fill:#000000;fill-opacity:1;stroke:none;"
   id="text172"
   xml:space="preserve" /><text
   id="text180"
   y="285.32416"
   x="111.7071"
   style="font-style:normal;font-weight:normal;font-size:40px;line-height:1.25;font-family:sans-serif;fill:#000000;fill-opacity:1;stroke:none"
   xml:space="preserve"><tspan
     sodipodi:role="line"
     style="font-size:96px"
     y="285.32416"
     x="111.7071"
     id="tspan178" /></text><text
   style="font-style:normal;font-weight:normal;font-size:40px;line-height:1.25;font-family:sans-serif;white-space:pre;shape-inside:url(#rect184);fill:#000000;fill-opacity:1;stroke:none;"
   id="text182"
   xml:space="preserve" /><text
   style="font-style:normal;font-weight:normal;font-size:40px;line-height:1.25;font-family:sans-serif;white-space:pre;shape-inside:url(#rect190);fill:#000000;fill-opacity:1;stroke:none;"
   id="text188"
   xml:space="preserve" /><text
   id="text196"
   y="349.92584"
   x="5.3834748"
   style="font-size:96px;line-height:1.25;font-family:sans-serif"
   xml:space="preserve"><tspan
     y="349.92584"
     x="5.3834748"
     id="tspan194"
     sodipodi:role="line">GOLDMAN</tspan></text></svg>
