<?xml version="1.0" encoding="iso-8859-1"?>
<!-- Generator: Adobe Illustrator 19.0.0, SVG Export Plug-In . SVG Version: 6.00 Build 0)  -->
<svg version="1.1" id="Capa_1" xmlns="http://www.w3.org/2000/svg" xmlns:xlink="http://www.w3.org/1999/xlink" x="0px" y="0px"
	 viewBox="0 0 512 512" style="enable-background:new 0 0 512 512;" xml:space="preserve">
<path style="fill:#F7CF66;" d="M366.043,367.667H186.454c-10.575,0-17.303-11.308-12.26-20.601l36.685-67.603
	c4.999-9.212,14.639-14.949,25.119-14.949h186.02L366.043,367.667z"/>
<path style="opacity:0.2;fill:#C97B00;enable-background:new    ;" d="M366.043,367.667H186.454
	c-10.575,0-17.303-11.308-12.26-20.601l36.685-67.603c4.999-9.212,14.639-14.949,25.119-14.949h186.02L366.043,367.667z"/>
<path style="fill:#F6E06A;" d="M502.784,347.065L466.1,279.462c-4.999-9.212-14.639-14.949-25.119-14.949H403.06
	c-10.481,0-20.12,5.737-25.119,14.949l-36.685,67.603c-5.044,9.295,1.685,20.601,12.26,20.601h137.01
	C501.098,367.667,507.827,356.359,502.784,347.065z"/>
<path style="fill:#F7CF66;" d="M201.064,367.62H21.476c-10.575,0-17.303-11.308-12.26-20.601l36.686-67.603
	c4.999-9.212,14.639-14.949,25.119-14.949h186.02L201.064,367.62z"/>
<path style="opacity:0.2;fill:#FFFFFF;enable-background:new    ;" d="M151.122,264.466c-0.535,3.062-0.83,6.207-0.83,9.423
	c0,30.04,24.352,54.392,54.392,54.392c6.966,0,13.619-1.324,19.74-3.71l32.616-60.104H151.122V264.466z"/>
<path style="fill:#F6E06A;" d="M337.806,347.017l-36.686-67.603c-4.999-9.212-14.639-14.949-25.119-14.949H238.08
	c-10.481,0-20.12,5.737-25.119,14.949l-36.686,67.603c-5.044,9.295,1.685,20.601,12.26,20.601h137.01
	C336.121,367.62,342.849,356.312,337.806,347.017z"/>
<path id="SVGCleanerId_0" style="fill:#F7CF66;" d="M283.537,264.514H103.95c-10.575,0-17.303-11.308-12.26-20.601l36.686-67.603
	c4.999-9.212,14.639-14.949,25.119-14.949h186.02L283.537,264.514z"/>
<g>
	<path id="SVGCleanerId_0_1_" style="fill:#F7CF66;" d="M283.537,264.514H103.95c-10.575,0-17.303-11.308-12.26-20.601
		l36.686-67.603c4.999-9.212,14.639-14.949,25.119-14.949h186.02L283.537,264.514z"/>
</g>
<path style="opacity:0.2;fill:#FFFFFF;enable-background:new    ;" d="M233.596,161.361c-0.535,3.062-0.83,6.207-0.83,9.423
	c0,30.04,24.352,54.392,54.392,54.392c6.966,0,13.619-1.324,19.74-3.71l32.616-60.104L233.596,161.361L233.596,161.361z"/>
<path style="fill:#F6E06A;" d="M420.279,243.913l-36.685-67.603c-4.999-9.212-14.639-14.949-25.119-14.949h-37.921
	c-10.481,0-20.12,5.737-25.119,14.949l-36.685,67.603c-5.044,9.295,1.685,20.601,12.26,20.601h137.01
	C418.594,264.514,425.323,253.206,420.279,243.913z"/>
<g>
	<path style="opacity:0.2;fill:#C97B00;enable-background:new    ;" d="M51.618,272.074c-2.258,2.089-4.203,4.553-5.716,7.341
		L9.217,347.017c-5.044,9.295,1.685,20.601,12.26,20.601h83.707C63.553,349.044,48.35,297.977,51.618,272.074z"/>
	<path style="opacity:0.2;fill:#C97B00;enable-background:new    ;" d="M134.091,168.968c-2.258,2.089-4.203,4.553-5.716,7.341
		l-36.686,67.604c-5.044,9.295,1.685,20.601,12.26,20.601h83.707C146.027,245.939,130.823,194.871,134.091,168.968z"/>
</g>
<path style="fill:#F7CF66;" d="M401.444,209.643L401.444,209.643c-3.583,7.427-14.161,7.427-17.743,0l0,0
	c-4.147-8.597-11.016-15.584-19.54-19.875l-2.376-1.196c-7.227-3.639-7.227-13.957,0-17.594l2.376-1.196
	c8.525-4.292,15.394-11.279,19.54-19.875l0,0c3.583-7.427,14.161-7.427,17.743,0l0,0c4.147,8.597,11.016,15.584,19.54,19.875
	l2.376,1.196c7.227,3.639,7.227,13.957,0,17.594l-2.376,1.196C412.459,194.06,405.59,201.047,401.444,209.643z"/>
<path style="fill:#FFFFFF;" d="M248.746,294.336L248.746,294.336c-3.583,7.427-14.161,7.427-17.742,0l0,0
	c-4.147-8.597-11.016-15.584-19.54-19.875l-2.376-1.196c-7.227-3.639-7.227-13.957,0-17.595l2.376-1.196
	c8.525-4.292,15.394-11.279,19.54-19.875l0,0c3.583-7.427,14.161-7.427,17.742,0l0,0c4.147,8.597,11.016,15.584,19.54,19.875
	l2.376,1.196c7.227,3.639,7.227,13.957,0,17.595l-2.376,1.196C259.762,278.752,252.893,285.739,248.746,294.336z"/>
<path d="M509.376,343.488l-3.925-7.234c-1.976-3.641-6.529-4.992-10.169-3.016c-3.641,1.976-4.991,6.528-3.016,10.169l3.926,7.235
	c1.578,2.909,0.438,5.426-0.126,6.374c-0.563,0.948-2.232,3.151-5.542,3.151H354.338c-0.271-0.03-0.545-0.047-0.824-0.047h-0.572
	c-2.92-0.242-4.441-2.214-4.97-3.104c-0.564-0.948-1.705-3.465-0.126-6.374l36.686-67.603c3.691-6.801,10.79-11.026,18.527-11.026
	h37.92c7.738,0,14.837,4.225,18.527,11.026l15.875,29.253c1.975,3.64,6.526,4.989,10.169,3.015c3.641-1.976,4.99-6.528,3.015-10.169
	l-15.876-29.253c-6.317-11.641-18.467-18.871-31.711-18.871h-12.502c1.752-5.485,1.231-11.449-1.607-16.678l-16.746-30.861
	c3.464-5.517,8.397-10.07,14.233-13.009l2.376-1.196c5.889-2.965,9.547-8.903,9.547-15.497c0-6.593-3.658-12.531-9.548-15.497
	l-2.376-1.196c-7.011-3.53-12.749-9.367-16.159-16.435c-2.919-6.052-8.907-9.812-15.627-9.812s-12.707,3.76-15.627,9.812
	c-1.655,3.431-3.867,6.564-6.499,9.291c-3.846-1.356-7.903-2.076-11.972-2.076h-204.98c-13.244,0-25.394,7.231-31.711,18.871
	l-36.686,67.604c-2.83,5.215-3.355,11.16-1.622,16.631H71.021c-13.244,0-25.394,7.231-31.711,18.871L2.625,343.441
	c-3.643,6.711-3.486,14.637,0.419,21.198c3.905,6.563,10.796,10.48,18.432,10.48h330.597c0.477,0.031,0.957,0.047,1.441,0.047
	h137.01c7.637,0,14.527-3.918,18.432-10.48C512.861,358.124,513.018,350.199,509.376,343.488z M365.157,177.675l2.376-1.196
	c3.182-1.602,6.177-3.543,8.941-5.766c0.164-0.124,0.322-0.256,0.476-0.395c5.656-4.662,10.307-10.523,13.507-17.155
	c0.558-1.156,1.565-1.329,2.116-1.329c0.551,0,1.559,0.172,2.116,1.329c4.837,10.028,12.978,18.308,22.923,23.316l2.376,1.196
	c1.125,0.566,1.293,1.559,1.293,2.099c0,0.541-0.168,1.533-1.293,2.099l-2.376,1.196c-9.828,4.949-17.887,13.097-22.744,22.965
	c-0.003,0.005-0.006,0.01-0.009,0.016c-0.057,0.108-0.112,0.216-0.165,0.325c0,0.001-0.001,0.002-0.001,0.003
	c-0.001,0.002-0.002,0.004-0.003,0.006l0,0c-0.558,1.156-1.565,1.329-2.116,1.329c-0.551,0-1.559-0.173-2.117-1.33
	c-4.837-10.028-12.979-18.308-22.922-23.315l-2.376-1.196c-1.126-0.566-1.294-1.559-1.294-2.099
	C363.863,179.234,364.031,178.241,365.157,177.675z M320.554,168.861h32.16c-2.452,3.026-3.85,6.843-3.85,10.914
	c0,6.593,3.658,12.531,9.548,15.497l2.375,1.196c7.011,3.53,12.75,9.367,16.158,16.435c2.919,6.053,8.907,9.813,15.627,9.813
	c2.435,0,4.77-0.5,6.902-1.417l14.214,26.193c1.579,2.909,0.438,5.426-0.126,6.374c-0.564,0.947-2.233,3.151-5.543,3.151H281.905
	c-1.619-3.415-4.34-6.266-7.871-8.044l-2.375-1.196c-1.702-0.857-3.326-1.855-4.863-2.969l35.229-64.919
	C305.717,173.086,312.816,168.861,320.554,168.861z M268.581,264.524c-0.011,0.55-0.202,1.494-1.291,2.042l-2.376,1.196
	c-9.945,5.008-18.086,13.289-22.922,23.316c-0.558,1.156-1.565,1.329-2.117,1.329c-0.551,0-1.559-0.172-2.116-1.329
	c-4.838-10.029-12.979-18.309-22.923-23.316l-2.376-1.196c-1.126-0.566-1.293-1.559-1.293-2.099c0-0.54,0.168-1.533,1.293-2.099
	l2.376-1.196c9.945-5.007,18.085-13.288,22.923-23.316c0.558-1.156,1.565-1.329,2.116-1.329s1.559,0.173,2.117,1.329
	c2.528,5.241,5.966,9.998,10.085,14.067c0.167,0.181,0.344,0.353,0.529,0.517c3.637,3.491,7.783,6.453,12.309,8.732l2.376,1.196
	c1.122,0.565,1.292,1.552,1.293,2.093c0,0.018-0.003,0.035-0.003,0.053C268.581,264.517,268.581,264.52,268.581,264.524z
	 M168.078,360.12H21.476c-3.31,0-4.979-2.204-5.542-3.151c-0.564-0.947-1.705-3.465-0.126-6.374l36.685-67.604
	c3.691-6.801,10.791-11.026,18.527-11.026h31.487c0.477,0.031,0.957,0.047,1.441,0.047c0.279,0,0.553-0.018,0.824-0.047h30.558
	c4.142,0,7.5-3.358,7.5-7.5s-3.358-7.5-7.5-7.5h-31.953c-2.92-0.241-4.441-2.214-4.97-3.103c-0.563-0.948-1.704-3.465-0.126-6.374
	l36.686-67.603c3.691-6.801,10.79-11.026,18.527-11.026h137.79c-0.885,1.23-1.706,2.518-2.441,3.872l-32.578,60.034
	c-0.257-0.475-0.529-0.941-0.764-1.428c-2.92-6.052-8.908-9.812-15.628-9.811c-6.72,0-12.707,3.76-15.626,9.812
	c-3.41,7.069-9.149,12.906-16.16,16.436l-2.376,1.196c-3.514,1.77-6.225,4.602-7.847,7.997h-27.774c-4.142,0-7.5,3.358-7.5,7.5
	s3.358,7.5,7.5,7.5h27.774c1.43,2.991,3.706,5.544,6.633,7.319l-34.815,64.157C166.846,348.67,166.326,354.635,168.078,360.12z
	 M331.088,356.968c-0.563,0.948-2.232,3.151-5.542,3.151h-137.01c-3.31,0-4.979-2.204-5.542-3.151
	c-0.564-0.947-1.705-3.465-0.127-6.374l34.181-62.988c2.94,2.886,5.401,6.258,7.2,9.987c2.919,6.052,8.907,9.812,15.626,9.812
	c0.001,0,0,0,0.001,0c6.719,0,12.707-3.76,15.627-9.812l0,0c3.409-7.069,9.148-12.906,16.158-16.435l2.376-1.196
	c3.257-1.64,5.826-4.191,7.477-7.257c5.489,1.486,10.229,5.15,13.016,10.286l36.685,67.603
	C332.793,353.503,331.652,356.021,331.088,356.968z M307.712,275.838c-0.725-1.337-1.536-2.608-2.408-3.824h68.485
	c-0.885,1.23-1.706,2.518-2.441,3.872l-31.805,58.61L307.712,275.838z"/>
<g>
</g>
<g>
</g>
<g>
</g>
<g>
</g>
<g>
</g>
<g>
</g>
<g>
</g>
<g>
</g>
<g>
</g>
<g>
</g>
<g>
</g>
<g>
</g>
<g>
</g>
<g>
</g>
<g>
</g>
</svg>
